*********** ****    ****      ***      ******** *********** ****    *** **********
          *+*     +*+*+* *+*+*+   *+* *+*   *+*    *+*    *+*     *+*+*   *+* *+*        
          +*+     +*+ +*+*+ +*+  +*+   +*+  +*+           +*+     *+*+*+  +*+ +*+        
          +$+     +$+  +*+  +$+ +$++*++$++* *$*           +$+     +$+ +*+ +$+ +$++*++$  
          +$+     +$+       +$+ +$+     +$+ +$+   +$+$    +$+     +$+  +$+$+$ +$+        
          $+$     $+$       $+$ $+$     $+$ $+$    $+$    $+$     $+$   $+$+$ $+$        
      $$$$$$$$$$$ $$$       $$$ $$$     $$$  $$$$$$$$ $$$$$$$$$$$ $$$    $$$$ $$$$$$$$$$    
                                               



                          Another Fine Release Brought to you from - IMAGiNE                  
                                               

********************************************************************************************************************                                
                              Arthur 2011 BRRiP AC3 XViD - IMAGiNE
********************************************************************************************************************

Ripper ...........: IMAGiNE                                        IMDB Rating.......:5.3/10                            
Video Codec.......: XVID                                         Release Date......:25/06/11
Audio Codec.......:AC3                                           Theatre Date......:08/04/11
Audio Bitrate.....:488                                              Runtime.......:1h 49mn
Subtitles.........:NIL                                                 Language..........:ENGLISH
Resolution...... 720 x 400                                      IMDb URL..........:http://www.imdb.com/title/tt1334512/


DETAILS:

Video
ID                               : 0
Format                           : MPEG-4 Visual
Format profile                   : Advanced Simple@L5
Format settings, BVOP            : 2
Format settings, QPel            : No
Format settings, GMC             : No warppoints
Format settings, Matrix          : Default (MPEG)
Muxing mode                      : Packed bitstream
Codec ID                         : XVID
Codec ID/Hint                    : XviD
Duration                         : 1h 49mn
Bit rate                         : 1 338 Kbps
Width                            : 720 pixels
Height                           : 400 pixels
Display aspect ratio             : 16:9
Frame rate                       : 23.976 fps
Color space                      : YUV
Chroma subsampling               : 4:2:0
Bit depth                        : 8 bits
Scan type                        : Progressive
Compression mode                 : Lossy
Bits/(Pixel*Frame)               : 0.194
Stream size                      : 1.03 GiB (67%)
Writing library                  : XviD 61

Audio
ID                               : 1
Format                           : AC-3
Format/Info                      : Audio Coding 3
Mode extension                   : CM (complete main)
Codec ID                         : 2000
Duration                         : 1h 49mn
Bit rate mode                    : Constant
Bit rate                         : 640 Kbps
Channel(s)                       : 6 channels
Channel positions                : Front: L C R, Side: L R, LFE
Sampling rate                    : 48.0 KHz
Bit depth                        : 16 bits
Compression mode                 : Lossy
Stream size                      : 503 MiB (32%)
Alignment                        : Aligned on interleaves
Interleave, duration             : 42 ms (1.00 video frame)
Interleave, preload duration     : 512 ms



SOURCES:

VIDEO:Arthur.2011.720p.Bluray.x264-MHD
AUDIO:Arthur.2011.720p.Bluray.x264-MHD

NOTES:

IMAGiNE bringing you another release..........Arthur 2011

Here we go with a straight forward rip of the 720p,will only some slight tweaks on the
brightness,sharpness.
Also audio converted to AC3 from DTS and removed.

Enjoy Folks 